<?xml version="1.0" encoding="UTF-8"?>
<svg id="Capa_2" data-name="Capa 2" xmlns="http://www.w3.org/2000/svg" viewBox="0 0 206.14 230.28">
  <defs>
    <style>
      .cls-1, .cls-2 {
        fill: none;
        stroke: #cc8f09;
        stroke-linecap: round;
        stroke-linejoin: round;
        stroke-width: 2px;
      }

      .cls-2 {
        stroke-dasharray: 3.06 3.06;
      }
    </style>
  </defs>
  <g id="Limpio">
    <g>
      <path class="cls-1" d="M77.06,199.03c0,16.56-13.43,30.25-30,30.25s-30-13.69-30-30.25"/>
      <path class="cls-1" d="M87.06,178.85v.18c0,5.53-4.48,10-10,10"/>
      <rect class="cls-1" x="70.88" y="12.85" width="22.36" height="22.36" rx="2.22" ry="2.22" transform="translate(23.87 86.69) rotate(-63.43)"/>
      <line class="cls-1" x1="13.45" y1="49.03" x2="80.97" y2="49.03"/>
      <path class="cls-1" d="M17.06,199.03v-7.35c0-1.69-.67-3.32-1.87-4.51l-3.62-3.62c-2.49-2.49-2.49-6.53,0-9.02l.97-.97c2.49-2.49,2.49-6.53,0-9.03l-.97-.97c-2.49-2.49-2.49-6.53,0-9.03l3.62-3.62c1.2-1.2,1.87-2.82,1.87-4.51v-10.97c0-3.52-2.86-6.38-6.38-6.38h-3.29c-4.74,0-7.83-4.99-5.71-9.24l4.71-9.42c.44-.89.67-1.86.67-2.85v-52.11c0-3.53,2.86-6.38,6.38-6.38h0c2.24,0,4.32-1.18,5.48-3.1L44.02,4.1c1.72-2.86,5.34-3.92,8.33-2.43l9,4.5c3.15,1.58,4.43,5.41,2.86,8.56l-5.09,10.18c-1.23,2.46-.75,5.42,1.2,7.37l14.88,14.88c1.2,1.2,2.82,1.87,4.51,1.87h.97c3.52,0,6.38,2.86,6.38,6.38v123.44"/>
      <line class="cls-1" x1="77.06" y1="189.03" x2="77.06" y2="199.03"/>
      <path class="cls-1" d="M129.07,199.03c0,16.56,13.43,30.25,30,30.25s30-13.69,30-30.25"/>
      <path class="cls-1" d="M119.07,178.85v.18c0,5.53,4.48,10,10,10"/>
      <rect class="cls-1" x="112.89" y="12.85" width="22.36" height="22.36" rx="2.22" ry="2.22" transform="translate(2.35 58.02) rotate(-26.57)"/>
      <rect class="cls-1" x="162.11" y="61.26" width="22.36" height="22.36" rx="11.18" ry="11.18" transform="translate(-14.1 85.14) rotate(-26.57)"/>
      <rect class="cls-1" x="21.67" y="61.26" width="22.36" height="22.36" rx="11.18" ry="11.18" transform="translate(-28.93 22.34) rotate(-26.57)"/>
      <line class="cls-1" x1="192.69" y1="49.03" x2="126.21" y2="49.03"/>
      <path class="cls-1" d="M189.07,199.03v-7.35c0-1.69.67-3.32,1.87-4.51l3.62-3.62c2.49-2.49,2.49-6.53,0-9.02l-.97-.97c-2.49-2.49-2.49-6.53,0-9.03l.97-.97c2.49-2.49,2.49-6.53,0-9.03l-3.62-3.62c-1.2-1.2-1.87-2.82-1.87-4.51v-10.97c0-3.52,2.86-6.38,6.38-6.38h3.29c4.74,0,7.83-4.99,5.71-9.24l-4.71-9.42c-.44-.89-.67-1.86-.67-2.85v-52.11c0-3.53-2.86-6.38-6.38-6.38h0c-2.24,0-4.32-1.18-5.48-3.1l-25.1-41.83c-1.72-2.86-5.34-3.92-8.33-2.43l-9,4.5c-3.15,1.58-4.43,5.41-2.86,8.56l5.09,10.18c1.23,2.46.75,5.42-1.2,7.37l-14.88,14.88c-1.2,1.2-2.82,1.87-4.51,1.87h-.97c-3.52,0-6.38,2.86-6.38,6.38v123.44"/>
      <line class="cls-1" x1="129.07" y1="189.03" x2="129.07" y2="199.03"/>
      <g>
        <line class="cls-1" x1="96.42" y1="28.36" x2="98.42" y2="28.36"/>
        <line class="cls-2" x1="101.48" y1="28.36" x2="106.08" y2="28.36"/>
        <line class="cls-1" x1="107.61" y1="28.36" x2="109.61" y2="28.36"/>
      </g>
    </g>
  </g>
</svg>