<?xml version="1.0" encoding="UTF-8"?>
<svg id="Capa_2" data-name="Capa 2" xmlns="http://www.w3.org/2000/svg" viewBox="0 0 200.63 230.28">
  <defs>
    <style>
      .cls-1, .cls-2 {
        fill: none;
        stroke: #cc8f09;
        stroke-linecap: round;
        stroke-linejoin: round;
        stroke-width: 2px;
      }

      .cls-2 {
        stroke-dasharray: 4;
      }
    </style>
  </defs>
  <g id="Limpio">
    <g>
      <path class="cls-1" d="M84.87,199.03c0,16.56-13.43,30.25-30,30.25s-30-13.69-30-30.25"/>
      <path class="cls-1" d="M94.87,178.85v.18c0,5.53-4.48,10-10,10"/>
      <line class="cls-1" x1="21.26" y1="49.03" x2="88.78" y2="49.03"/>
      <path class="cls-1" d="M24.87,199.03v-7.35c0-1.69-.67-3.32-1.87-4.51l-3.62-3.62c-2.49-2.49-2.49-6.53,0-9.02l.97-.97c2.49-2.49,2.49-6.53,0-9.03l-.97-.97c-2.49-2.49-2.49-6.53,0-9.03l3.62-3.62c1.2-1.2,1.87-2.82,1.87-4.51v-10.97c0-3.52-2.86-6.38-6.38-6.38h-3.29c-4.74,0-7.83-4.99-5.71-9.24l4.71-9.42c.44-.89.67-1.86.67-2.85v-52.11c0-3.53,2.86-6.38,6.38-6.38h0c2.24,0,4.32-1.18,5.48-3.1L51.83,4.1c1.72-2.86,5.34-3.92,8.33-2.43l9,4.5c3.15,1.58,4.43,5.41,2.86,8.56l-5.09,10.18c-1.23,2.46-.75,5.42,1.2,7.37l14.88,14.88c1.2,1.2,2.82,1.87,4.51,1.87h.97c3.52,0,6.38,2.86,6.38,6.38v123.44"/>
      <line class="cls-1" x1="84.87" y1="189.03" x2="84.87" y2="199.03"/>
      <rect class="cls-1" x="120.7" y="12.85" width="22.36" height="22.36" rx="2.22" ry="2.22" transform="translate(3.18 61.52) rotate(-26.57)"/>
      <rect class="cls-1" x="29.48" y="61.26" width="22.36" height="22.36" rx="11.18" ry="11.18" transform="translate(-28.1 25.83) rotate(-26.57)"/>
      <rect class="cls-1" x="152.51" y="61.26" width="22.36" height="22.36" rx="11.18" ry="11.18" transform="translate(-15.12 80.85) rotate(-26.57)"/>
      <path class="cls-1" d="M114.87,54.36v169.34c0,2.94,2.65,5.33,5.92,5.33h38.15c3.27,0,5.92-2.39,5.92-5.33v-37.46c0-1.41-.62-2.77-1.73-3.77l-2.45-2.21c-2.86-2.57-2.08-6.91,1.54-8.54l5.3-2.38c3.62-1.63,4.4-5.96,1.54-8.54h0c-2.31-2.08-2.31-5.46,0-7.54l12.79-11.51c1.8-1.62,2.25-4.1,1.11-6.15l-4.79-8.62c-1.69-3.05.19-6.73,3.86-7.56l13.1-2.95c5.75-1.29,6.06-8.54.44-10.23l-6.65-2c-2.42-.73-4.05-2.76-4.05-5.06v-44.83c0-2.94-2.65-5.33-5.92-5.33h-58.15c-3.27,0-5.92,2.39-5.92,5.33Z"/>
      <line class="cls-2" x1="178.7" y1="156.29" x2="191.89" y2="156.29"/>
      <line class="cls-2" x1="1" y1="168.55" x2="14.19" y2="168.55"/>
    </g>
  </g>
</svg>