<?xml version="1.0" encoding="UTF-8"?>
<svg id="Capa_2" data-name="Capa 2" xmlns="http://www.w3.org/2000/svg" viewBox="0 0 161 150.77">
  <defs>
    <style>
      .cls-1 {
        fill: none;
      }

      .cls-1, .cls-2 {
        stroke: #c17700;
        stroke-miterlimit: 10;
      }

      .cls-2 {
        fill: #f99300;
      }
    </style>
  </defs>
  <g id="final">
    <g>
      <path class="cls-2" d="M12.54,150.27h5.93c6.63,0,12-5.37,12-12v-4c0-2.21-1.79-4-4-4h-1.84c-2.21,0-4,1.79-4,4v2c0,2.21-1.79,4-4,4h-2.1c-2.21,0-4-1.79-4-4v-27c0-2.21,1.79-4,4-4h2.1c2.21,0,4,1.79,4,4v2.66c0,2.21,1.79,4,4,4h1.84c2.21,0,4-1.79,4-4v-4.52c0-6.63-5.37-12-12-12h-5.93c-.69,0-1.36.06-2.01.17v-15.31c.12-38.7,31.68-70.01,70.47-69.74,38.22.27,68.86,31.66,69.46,69.74v.24c0,.3,0,.6,0,.9v4.21c0,2.72,2.2,4.92,4.92,4.92h.19c2.72,0,4.92-2.2,4.92-4.92v-5.12c0-44.36-36.11-80.3-80.55-80C35.81.8.5,37.4.5,81.54l.04,56.73v2c0,5.52,4.48,10,10,10h2Z"/>
      <path class="cls-2" d="M150.46,136.27c0,2.21-1.79,4-4,4h-2.09c-2.21,0-4-1.79-4-4v-55.61c-.4-32.59-26.45-59.63-59.12-60.04-33.41-.41-60.62,26.56-60.62,59.88v5.12c0,2.72,2.2,4.92,4.92,4.92h0c2.72,0,4.92-2.2,4.92-4.92v-5.12c0-27.9,22.85-50.47,50.85-50.02,27.45.44,49.21,23.42,49.21,50.88v5.18c0,.07,0,.14.01.21v51.52c0,.68.06,1.35.17,2,.3,1.85,1.03,3.55,2.08,5,2.18,3.03,5.73,5,9.75,5h5.96c4.02,0,7.57-1.97,9.75-5,1.05-1.45,1.78-3.15,2.08-5,.11-.65.17-1.32.17-2v-34c0-2.21-1.79-4-4-4h-2.04c-2.21,0-4,1.79-4,4v32Z"/>
      <path class="cls-2" d="M140.38,81.43v5.11c0,.07,0,.14-.01.21v-6.09c.01.26.01.51.01.77Z"/>
      <path class="cls-2" d="M100.5,81.02v5.52c0,.07,0,.14-.01.21v-6.23c.01.16.01.33.01.5Z"/>
      <path class="cls-2" d="M120.49,80.27v6.48c-.11,2.11-1.85,3.79-3.99,3.79h-1.13c-2.72,0-4.92-2.2-4.92-4.92v-4.46c0-.13,0-.26,0-.38-.19-16.18-12.93-29.79-29.13-30.22-.25-.01-.51-.01-.77-.01-16.56-.03-29.99,13.39-29.99,29.95v5.12c0,2.72-2.2,4.92-4.92,4.92h-.21c-2.72,0-4.92-2.2-4.92-4.92v-5.12c0-21.82,17.47-39.56,39.19-39.99.28-.01.57-.01.85-.01,21.7.03,39.39,18.07,39.95,39.77Z"/>
      <path class="cls-2" d="M120.5,81.33v5.21c0,.07,0,.14-.01.21v-6.46c.01.35.01.69.01,1.04Z"/>
      <line class="cls-2" x1="130.54" y1="86.75" x2="130.54" y2="80.27"/>
      <line class="cls-2" x1="140.37" y1="80.66" x2="140.37" y2="80.27"/>
      <line class="cls-2" x1="150.46" y1="80.51" x2="150.46" y2="80.27"/>
      <line class="cls-2" x1="90.56" y1="86.95" x2="90.56" y2="80.39"/>
      <line class="cls-2" x1="110.44" y1="80.78" x2="110.44" y2="80.27"/>
      <path class="cls-2" d="M120.49,107.41v42.86h-20.43c-5.25,0-9.5-4.25-9.5-9.5v-5.5h9.93v5h9.95s0-15,0-15h-9.95v-9.34h9.95v-10.66h-9.95s0,5,0,5h-9.93v-5.36c0-5.25,4.25-9.5,9.5-9.5h8.43c6.63,0,12,5.37,12,12Z"/>
      <path class="cls-2" d="M81.2,60.51c-.46-.02-.81,0-1.39-.02-10.57-.28-19.31,8.15-19.31,18.72v11.27c0,2.72-2.2,4.92-4.92,4.92h-15.08v54.86h16.94c7.19,0,13.02-5.83,13.02-13.02v-56.75c0-5.56,4.52-10.06,10.08-10.04.2,0,.4.01.6.02,5.36.33,9.4,5.04,9.4,10.41v5.65c0,.14.01.28.02.41.21,2.02,1.91,3.59,3.98,3.59h1.96c2.14,0,3.88-1.68,3.99-3.79v-6.36c-.32-10.59-8.64-19.52-19.29-19.88ZM60.5,135.3c0,2.74-2.24,4.98-4.98,4.98h0c-2.74,0-4.98-2.24-4.98-4.98v-26.06c0-.14.01-.27.02-.4.12-1.2.78-2.24,1.73-2.88t.01,0c.43-.3.91-.5,1.43-.6.25-.05.51-.08.77-.08h1.01c2.74,0,4.98,2.24,4.98,4.98v25.05Z"/>
      <path class="cls-1" d="M60.5,110.25v25.05c0,2.74-2.24,4.98-4.98,4.98h0c-2.74,0-4.98-2.24-4.98-4.98v-26.06c0-.14.01-.27.02-.4.13-1.19.79-2.23,1.73-2.88t.01,0c.42-.28.91-.49,1.43-.6.25-.05.51-.08.77-.08h1.01c2.74,0,4.98,2.24,4.98,4.98Z"/>
      <line class="cls-2" x1="90.56" y1="135.27" x2="90.54" y2="135.27"/>
    </g>
  </g>
</svg>